<?xml version="1.0" encoding="UTF-8"?>
<svg xmlns="http://www.w3.org/2000/svg" viewBox="130 630 2370 630">
<path fill-rule="nonzero" fill="rgb(13.729858%, 12.159729%, 12.548828%)" fill-opacity="1" d="M 392.703125 1147.96875 C 382.035156 1136.542969 371.695312 1124.789062 360.648438 1113.75 C 308.464844 1061.613281 256.21875 1009.542969 203.730469 957.714844 C 175.371094 929.714844 156.28125 898.046875 161.070312 856.320312 C 165.324219 819.261719 186.996094 796.761719 221.234375 784.59375 C 225.546875 783.058594 231.070312 779.546875 232.355469 775.71875 C 245.492188 736.628906 282.4375 715.226562 323.441406 723.910156 C 349.683594 729.46875 371.863281 742.902344 391.664062 760.445312 C 394.335938 762.808594 396.363281 767.378906 396.425781 770.964844 C 396.847656 794.144531 396.640625 817.335938 396.640625 843.144531 C 392.429688 839.738281 389.6875 837.808594 387.28125 835.523438 C 374.65625 823.542969 362.183594 811.40625 349.507812 799.480469 C 345.90625 796.09375 342.058594 792.835938 337.886719 790.214844 C 324.398438 781.746094 310.652344 783.316406 302.058594 793.933594 C 294.1875 803.664062 295.589844 815.292969 307.265625 827.175781 C 333.402344 853.78125 359.695312 880.242188 386.402344 906.269531 C 393.753906 913.429688 397.332031 920.589844 396.878906 931.136719 C 396.003906 951.65625 396.625 972.234375 396.625 996.207031 C 375.542969 975.449219 356.734375 957.128906 338.152344 938.582031 C 313.8125 914.277344 290.042969 889.386719 265.164062 865.65625 C 258.457031 859.257812 248.976562 853.296875 240.128906 852.171875 C 225.050781 850.25 213.609375 864.589844 218.351562 879.074219 C 221.820312 889.671875 227.886719 900.5 235.648438 908.4375 C 286.335938 960.292969 337.929688 1011.261719 388.78125 1062.960938 C 393.078125 1067.328125 396.03125 1074.835938 396.292969 1081.027344 C 397.199219 1102.503906 396.640625 1124.042969 396.640625 1145.554688 C 395.328125 1146.359375 394.015625 1147.164062 392.703125 1147.96875 "/>
<path fill-rule="nonzero" fill="rgb(13.729858%, 12.159729%, 12.548828%)" fill-opacity="1" d="M 400.269531 1147.96875 C 410.933594 1136.542969 421.273438 1124.789062 432.324219 1113.75 C 484.507812 1061.613281 536.753906 1009.542969 589.242188 957.714844 C 617.601562 929.714844 636.691406 898.046875 631.902344 856.320312 C 627.648438 819.261719 605.972656 796.761719 571.734375 784.59375 C 567.425781 783.058594 561.902344 779.546875 560.613281 775.71875 C 547.480469 736.628906 510.53125 715.226562 469.53125 723.910156 C 443.289062 729.46875 421.105469 742.902344 401.304688 760.445312 C 398.636719 762.808594 396.609375 767.378906 396.546875 770.964844 C 396.125 794.144531 396.328125 817.335938 396.328125 843.144531 C 400.542969 839.738281 403.285156 837.808594 405.691406 835.523438 C 418.316406 823.542969 430.789062 811.40625 443.464844 799.480469 C 447.066406 796.09375 450.914062 792.835938 455.085938 790.214844 C 468.574219 781.746094 482.320312 783.316406 490.910156 793.933594 C 498.785156 803.664062 497.382812 815.292969 485.703125 827.175781 C 459.570312 853.78125 433.277344 880.242188 406.570312 906.269531 C 399.21875 913.429688 395.640625 920.589844 396.089844 931.136719 C 396.964844 951.65625 396.347656 972.234375 396.347656 996.207031 C 417.425781 975.449219 436.238281 957.128906 454.816406 938.582031 C 479.160156 914.277344 502.925781 889.386719 527.808594 865.65625 C 534.515625 859.257812 543.992188 853.296875 552.839844 852.171875 C 567.921875 850.25 579.363281 864.589844 574.621094 879.074219 C 571.152344 889.671875 565.082031 900.5 557.324219 908.4375 C 506.636719 960.292969 455.042969 1011.261719 404.191406 1062.960938 C 399.894531 1067.328125 396.941406 1074.835938 396.679688 1081.027344 C 395.773438 1102.503906 396.328125 1124.042969 396.328125 1145.554688 C 397.644531 1146.359375 398.957031 1147.164062 400.269531 1147.96875 "/>
<path fill-rule="nonzero" fill="rgb(13.729858%, 12.159729%, 12.548828%)" fill-opacity="1" d="M 1217.863281 1169.714844 C 1217.863281 1166.855469 1216.96875 1164.582031 1215.132812 1162.757812 C 1213.289062 1160.933594 1210.59375 1160.042969 1206.894531 1160.042969 L 1175.441406 1160.042969 L 1175.441406 1179.386719 L 1207 1179.386719 C 1210.0625 1179.386719 1212.601562 1178.421875 1214.761719 1176.441406 C 1216.847656 1174.53125 1217.859375 1172.328125 1217.863281 1169.714844 M 1175.4375 1225.753906 L 1206.03125 1225.753906 C 1210.15625 1225.753906 1213.691406 1224.914062 1216.53125 1223.257812 C 1219.394531 1221.59375 1221.488281 1219.433594 1222.933594 1216.648438 C 1224.398438 1213.820312 1225.140625 1210.574219 1225.140625 1207 C 1225.140625 1203.625 1224.363281 1200.625 1222.757812 1197.828125 C 1221.175781 1195.054688 1218.949219 1192.765625 1216.132812 1191.019531 C 1213.3125 1189.277344 1210.304688 1188.367188 1206.941406 1188.238281 L 1175.4375 1188.238281 Z M 1237.398438 1207.660156 C 1237.398438 1212.429688 1236.269531 1216.910156 1234.03125 1220.972656 C 1231.78125 1225.054688 1228.675781 1228.320312 1224.796875 1230.683594 C 1220.898438 1233.070312 1216.585938 1234.277344 1211.984375 1234.277344 L 1163.625 1234.277344 L 1163.625 1151.71875 L 1212.183594 1151.71875 C 1217.171875 1151.71875 1221.390625 1153.410156 1224.722656 1156.75 C 1228.058594 1160.089844 1229.753906 1164.386719 1229.753906 1169.515625 C 1229.753906 1173.394531 1228.390625 1176.953125 1225.707031 1180.089844 C 1224.675781 1181.285156 1223.546875 1182.347656 1222.320312 1183.269531 C 1223.867188 1183.988281 1225.34375 1184.878906 1226.746094 1185.9375 C 1230.03125 1188.425781 1232.660156 1191.597656 1234.550781 1195.367188 C 1236.441406 1199.144531 1237.398438 1203.28125 1237.398438 1207.660156 "/>
<path fill-rule="nonzero" fill="rgb(13.729858%, 12.159729%, 12.548828%)" fill-opacity="1" d="M 1295.554688 1151.71875 L 1307.371094 1151.71875 L 1307.371094 1234.277344 L 1295.554688 1234.277344 Z M 1295.554688 1151.71875 "/>
<path fill-rule="nonzero" fill="rgb(13.729858%, 12.159729%, 12.548828%)" fill-opacity="1" d="M 1394.113281 1151.570312 L 1394.113281 1204.25 C 1394.113281 1210.769531 1393.882812 1215.667969 1393.390625 1219.660156 C 1392.796875 1224.472656 1391.511719 1228.675781 1389.582031 1232.160156 C 1389.238281 1232.777344 1388.863281 1233.367188 1388.46875 1233.941406 C 1386.554688 1236.742188 1384.039062 1239.035156 1380.992188 1240.757812 C 1377.65625 1242.640625 1373.367188 1243.675781 1368.238281 1243.835938 L 1365.457031 1243.921875 L 1365.457031 1237.144531 L 1369.058594 1236.347656 C 1370.101562 1236.066406 1371.046875 1235.738281 1371.855469 1235.367188 C 1374.695312 1234.0625 1376.808594 1232.355469 1378.308594 1230.148438 C 1379.84375 1227.902344 1380.871094 1225.125 1381.363281 1221.894531 L 1381.566406 1220.601562 C 1381.738281 1219.222656 1381.890625 1217.800781 1382.011719 1216.265625 C 1382.070312 1215.484375 1382.125 1214.65625 1382.164062 1213.777344 C 1382.230469 1212.445312 1382.277344 1210.984375 1382.300781 1209.28125 L 1382.300781 1151.574219 Z M 1394.113281 1151.570312 "/>
<path fill-rule="nonzero" fill="rgb(13.729858%, 12.159729%, 12.548828%)" fill-opacity="1" d="M 1520.832031 1202.316406 C 1520.832031 1215.039062 1515.359375 1225.503906 1506.191406 1230.316406 C 1501.164062 1232.957031 1494.863281 1234.292969 1487.460938 1234.292969 C 1487.128906 1234.292969 1486.796875 1234.292969 1486.460938 1234.285156 C 1478.816406 1234.167969 1472.492188 1232.6875 1467.125 1229.765625 C 1461.363281 1226.632812 1457.0625 1222.023438 1454.695312 1216.441406 C 1452.832031 1212.046875 1452.675781 1207.640625 1452.675781 1203.847656 L 1452.675781 1151.714844 L 1464.492188 1151.714844 L 1464.492188 1171.167969 C 1464.492188 1171.167969 1464.554688 1190.410156 1464.554688 1194.039062 L 1464.554688 1204.511719 C 1464.550781 1206.902344 1464.546875 1209.160156 1465.121094 1211.28125 C 1466.363281 1215.875 1469.597656 1219.773438 1474.230469 1222.269531 C 1478.742188 1224.695312 1484.476562 1225.730469 1491.261719 1225.328125 C 1497.589844 1224.953125 1502.394531 1223.296875 1505.546875 1220.402344 C 1508.804688 1217.40625 1511.058594 1212.832031 1511.726562 1207.851562 C 1512.042969 1205.511719 1512.027344 1202.984375 1512.007812 1200.539062 L 1511.988281 1197.679688 L 1511.988281 1151.71875 L 1520.824219 1151.71875 Z M 1520.832031 1202.316406 "/>
<path fill-rule="nonzero" fill="rgb(13.729858%, 12.159729%, 12.548828%)" fill-opacity="1" d="M 1666.84375 1160.550781 L 1627.460938 1160.550781 L 1627.460938 1234.277344 L 1615.644531 1234.277344 L 1615.644531 1160.550781 L 1576.257812 1160.550781 L 1578.496094 1151.714844 L 1664.605469 1151.714844 Z M 1666.84375 1160.550781 "/>
<path fill-rule="nonzero" fill="rgb(13.729858%, 12.159729%, 12.548828%)" fill-opacity="1" d="M 1731.023438 1225.441406 L 1785.132812 1225.441406 L 1782.941406 1234.277344 L 1719.207031 1234.277344 L 1719.207031 1151.71875 L 1782.941406 1151.71875 L 1785.132812 1160.550781 L 1731.023438 1160.550781 L 1731.023438 1180.878906 L 1761.800781 1180.878906 L 1761.800781 1189.714844 L 1731.023438 1189.714844 Z M 1731.023438 1225.441406 "/>
<path fill-rule="nonzero" fill="rgb(13.729858%, 12.159729%, 12.548828%)" fill-opacity="1" d="M 1852.40625 1198.355469 L 1872.164062 1198.355469 C 1873.035156 1198.355469 1873.878906 1198.320312 1874.703125 1198.265625 C 1875.503906 1198.210938 1876.292969 1198.128906 1877.0625 1198.019531 L 1877.363281 1197.980469 L 1877.367188 1197.980469 C 1880.042969 1197.578125 1882.46875 1196.835938 1884.582031 1195.769531 C 1887.875 1194.09375 1890.378906 1191.839844 1892.027344 1189.074219 C 1893.582031 1186.457031 1894.421875 1183.457031 1894.511719 1180.164062 L 1894.535156 1179.390625 L 1894.511719 1179.007812 C 1894.414062 1175.660156 1893.601562 1172.742188 1892.027344 1170.089844 C 1890.378906 1167.324219 1887.875 1165.066406 1884.574219 1163.386719 C 1882.476562 1162.328125 1880.046875 1161.585938 1877.363281 1161.179688 C 1876.726562 1161.0625 1876.144531 1160.972656 1875.570312 1160.90625 L 1875.566406 1160.917969 C 1875.367188 1160.890625 1875.15625 1160.871094 1874.945312 1160.851562 L 1874.28125 1160.789062 C 1873.9375 1160.757812 1873.589844 1160.722656 1873.234375 1160.714844 L 1852.394531 1160.714844 Z M 1910 1227.789062 L 1909.9375 1234.277344 L 1901.203125 1234.277344 C 1895.574219 1234.277344 1890.34375 1231.742188 1886.851562 1227.324219 L 1871.164062 1207.449219 L 1852.40625 1207.449219 L 1852.40625 1234.273438 L 1840.589844 1234.273438 L 1840.589844 1151.714844 L 1878.589844 1151.714844 C 1883.703125 1151.714844 1888.492188 1152.96875 1892.835938 1155.441406 C 1897.171875 1157.910156 1900.65625 1161.328125 1903.1875 1165.597656 C 1905.699219 1169.859375 1906.980469 1174.5625 1906.992188 1179.574219 C 1906.980469 1184.597656 1905.699219 1189.300781 1903.1875 1193.5625 C 1900.660156 1197.835938 1897.175781 1201.253906 1892.835938 1203.722656 C 1890.542969 1205.027344 1888.113281 1205.996094 1885.574219 1206.617188 L 1899.300781 1223.933594 C 1901.242188 1226.382812 1904.144531 1227.789062 1907.269531 1227.789062 Z M 1910 1227.789062 "/>
<path fill-rule="nonzero" fill="rgb(13.729858%, 12.159729%, 12.548828%)" fill-opacity="1" d="M 1967.953125 1151.71875 L 1979.765625 1151.71875 L 1979.765625 1234.277344 L 1967.953125 1234.277344 Z M 1967.953125 1151.71875 "/>
<path fill-rule="nonzero" fill="rgb(13.729858%, 12.159729%, 12.548828%)" fill-opacity="1" d="M 2053.925781 1205.105469 L 2087.269531 1205.105469 L 2071.558594 1169.824219 Z M 2113.941406 1234.277344 L 2100.941406 1234.277344 L 2091.183594 1213.214844 L 2052.753906 1213.214844 C 2050.8125 1213.214844 2049.046875 1214.347656 2048.148438 1216.171875 L 2039.515625 1234.277344 L 2029.511719 1234.277344 L 2070.710938 1148.890625 L 2075.019531 1148.890625 Z M 2113.941406 1234.277344 "/>
<path fill-rule="nonzero" fill="rgb(13.729858%, 12.159729%, 12.548828%)" fill-opacity="1" d="M 1082.800781 723.566406 L 1082.800781 731.292969 L 1060.578125 731.292969 L 1060.578125 1056.625 L 1082.800781 1056.625 L 1082.800781 1064.351562 L 996.816406 1064.351562 L 996.816406 1056.625 L 1020.246094 1056.625 L 1020.246094 749.40625 L 937.644531 1061.457031 L 930.15625 1061.695312 L 838.136719 753.996094 L 838.136719 1056.625 L 865.1875 1056.625 L 865.1875 1064.351562 L 803.117188 1064.351562 L 803.117188 1056.625 L 830.167969 1056.625 L 830.167969 731.292969 L 803.117188 731.292969 L 803.117188 723.566406 L 870.503906 723.566406 L 948.996094 988.515625 L 1019.039062 723.566406 Z M 1082.800781 723.566406 "/>
<path fill-rule="nonzero" fill="rgb(13.729858%, 12.159729%, 12.548828%)" fill-opacity="1" d="M 1355.476562 723.566406 L 1355.476562 731.292969 L 1331.328125 731.292969 L 1331.328125 1056.625 L 1355.476562 1056.625 L 1355.476562 1064.351562 L 1266.839844 1064.351562 L 1266.839844 1056.625 L 1290.992188 1056.625 L 1290.992188 731.292969 L 1266.839844 731.292969 L 1266.839844 723.566406 Z M 1355.476562 723.566406 "/>
<path fill-rule="nonzero" fill="rgb(13.729858%, 12.159729%, 12.548828%)" fill-opacity="1" d="M 1603.28125 731.050781 L 1603.28125 892.871094 L 1644.582031 892.871094 C 1669.375 892.871094 1686.445312 887.316406 1695.78125 876.207031 C 1705.28125 864.9375 1710.03125 844.003906 1710.03125 813.410156 L 1710.03125 810.269531 C 1710.03125 757.460938 1688.695312 731.050781 1646.03125 731.050781 Z M 1625.742188 1064.113281 L 1539.519531 1064.113281 L 1539.519531 1056.382812 L 1562.945312 1056.382812 L 1562.945312 731.050781 L 1539.519531 731.050781 L 1539.519531 723.324219 L 1661.488281 723.324219 C 1720.09375 723.324219 1749.402344 746.269531 1749.402344 792.15625 L 1749.402344 831.765625 C 1749.402344 854.3125 1743.925781 870.894531 1732.976562 881.519531 C 1723.636719 890.539062 1708.664062 896.253906 1688.054688 898.667969 C 1707.695312 903.980469 1722.351562 913.402344 1732.011719 926.925781 C 1740.707031 939.164062 1745.054688 953.898438 1745.054688 971.125 L 1745.054688 1035.613281 C 1745.054688 1051.550781 1749.644531 1059.523438 1758.820312 1059.523438 C 1768.320312 1059.523438 1773.070312 1051.957031 1773.070312 1036.820312 L 1773.070312 1033.4375 L 1780.074219 1033.4375 L 1780.074219 1036.820312 C 1780.074219 1049.058594 1777.417969 1057.832031 1772.105469 1063.144531 C 1767.273438 1067.8125 1759.304688 1070.148438 1748.195312 1070.148438 C 1733.539062 1070.148438 1723.152344 1066.042969 1717.035156 1057.832031 C 1711.238281 1049.945312 1708.34375 1036.578125 1708.34375 1017.738281 L 1708.34375 993.828125 C 1708.34375 961.945312 1700.773438 938.121094 1685.640625 922.339844 C 1671.628906 907.847656 1651.664062 900.601562 1625.742188 900.601562 L 1603.28125 900.601562 L 1603.28125 1056.382812 L 1625.742188 1056.382812 Z M 1625.742188 1064.113281 "/>
<path fill-rule="nonzero" fill="rgb(13.729858%, 12.159729%, 12.548828%)" fill-opacity="1" d="M 2045.507812 723.566406 L 2045.507812 731.292969 L 2021.355469 731.292969 L 2021.355469 1056.625 L 2045.507812 1056.625 L 2045.507812 1064.351562 L 1956.871094 1064.351562 L 1956.871094 1056.625 L 1981.019531 1056.625 L 1981.019531 731.292969 L 1956.871094 731.292969 L 1956.871094 723.566406 Z M 2045.507812 723.566406 "/>
<path fill-rule="nonzero" fill="rgb(13.729858%, 12.159729%, 12.548828%)" fill-opacity="1" d="M 2312.390625 674.054688 C 2307.398438 674.054688 2302.488281 676.710938 2297.65625 682.023438 C 2296.207031 683.796875 2294.835938 685.648438 2293.550781 687.578125 C 2293.066406 688.222656 2292.664062 688.785156 2292.34375 689.269531 L 2292.101562 689.992188 L 2285.582031 686.613281 C 2291.859375 674.214844 2297.171875 665.839844 2301.519531 661.492188 C 2305.867188 657.308594 2311.019531 655.214844 2316.976562 655.214844 C 2321.644531 655.214844 2329.539062 657.472656 2340.648438 661.976562 C 2345.960938 664.234375 2350.308594 665.839844 2353.691406 666.808594 C 2358.679688 668.097656 2363.429688 668.738281 2367.941406 668.738281 C 2373.410156 668.738281 2379.050781 667.613281 2384.847656 665.359375 C 2391.285156 662.785156 2395.632812 659.5625 2397.890625 655.699219 L 2403.925781 658.835938 L 2402.71875 661.011719 L 2401.269531 663.183594 C 2400.304688 665.117188 2399.253906 666.808594 2398.128906 668.257812 C 2395.390625 672.28125 2392.65625 675.742188 2389.917969 678.640625 C 2382.027344 686.371094 2373.167969 690.234375 2363.351562 690.234375 C 2357.875 690.234375 2351.433594 688.542969 2344.027344 685.164062 L 2339.441406 682.988281 L 2334.851562 680.816406 C 2330.988281 679.046875 2327.847656 677.675781 2325.429688 676.710938 C 2320.601562 674.941406 2316.253906 674.054688 2312.390625 674.054688 M 2277.371094 947.214844 L 2381.707031 947.214844 L 2329.054688 747.957031 Z M 2362.867188 723.5625 L 2451.023438 1056.625 L 2474.449219 1056.625 L 2474.449219 1064.351562 L 2388.226562 1064.351562 L 2388.226562 1056.625 L 2410.6875 1056.625 L 2383.878906 954.941406 L 2275.195312 954.941406 L 2248.867188 1056.625 L 2277.125 1056.625 L 2277.125 1064.351562 L 2215.054688 1064.351562 L 2215.054688 1056.625 L 2240.898438 1056.625 L 2327.363281 723.5625 Z M 2362.867188 723.5625 "/>
</svg>
