<?xml version="1.0" encoding="UTF-8"?>
<svg xmlns="http://www.w3.org/2000/svg" viewBox="1060 360 540 500">
<path fill-rule="nonzero" fill="rgb(13.729858%, 12.159729%, 12.548828%)" fill-opacity="1" d="M 1325.355469 818.140625 C 1314.679688 806.703125 1304.328125 794.941406 1293.265625 783.886719 C 1241.03125 731.695312 1188.726562 679.570312 1136.183594 627.691406 C 1107.792969 599.65625 1088.683594 567.960938 1093.480469 526.1875 C 1097.734375 489.089844 1119.433594 466.566406 1153.707031 454.386719 C 1158.023438 452.851562 1163.554688 449.335938 1164.839844 445.5 C 1177.988281 406.371094 1214.976562 384.945312 1256.019531 393.636719 C 1282.292969 399.203125 1304.496094 412.652344 1324.316406 430.210938 C 1326.988281 432.578125 1329.019531 437.152344 1329.082031 440.742188 C 1329.503906 463.949219 1329.300781 487.164062 1329.300781 513 C 1325.082031 509.585938 1322.339844 507.65625 1319.929688 505.371094 C 1307.292969 493.378906 1294.804688 481.226562 1282.113281 469.289062 C 1278.511719 465.898438 1274.660156 462.636719 1270.480469 460.011719 C 1256.980469 451.535156 1243.21875 453.109375 1234.617188 463.738281 C 1226.734375 473.476562 1228.140625 485.117188 1239.828125 497.015625 C 1265.992188 523.648438 1292.3125 550.136719 1319.050781 576.1875 C 1326.40625 583.359375 1329.988281 590.523438 1329.539062 601.082031 C 1328.660156 621.621094 1329.28125 642.226562 1329.28125 666.21875 C 1308.179688 645.441406 1289.347656 627.105469 1270.75 608.535156 C 1246.382812 584.207031 1222.589844 559.289062 1197.683594 535.535156 C 1190.96875 529.132812 1181.480469 523.164062 1172.621094 522.035156 C 1157.527344 520.109375 1146.070312 534.464844 1150.820312 548.964844 C 1154.296875 559.574219 1160.367188 570.414062 1168.136719 578.359375 C 1218.878906 630.269531 1270.527344 681.292969 1321.429688 733.046875 C 1325.730469 737.417969 1328.6875 744.933594 1328.949219 751.132812 C 1329.855469 772.628906 1329.296875 794.191406 1329.296875 815.730469 C 1327.984375 816.53125 1326.671875 817.335938 1325.355469 818.140625 "/>
<path fill-rule="nonzero" fill="rgb(13.729858%, 12.159729%, 12.548828%)" fill-opacity="1" d="M 1332.929688 818.140625 C 1343.609375 806.703125 1353.957031 794.941406 1365.019531 783.886719 C 1417.257812 731.695312 1469.558594 679.570312 1522.101562 627.691406 C 1550.492188 599.65625 1569.601562 567.960938 1564.808594 526.1875 C 1560.550781 489.089844 1538.851562 466.566406 1504.578125 454.386719 C 1500.261719 452.851562 1494.734375 449.335938 1493.445312 445.5 C 1480.296875 406.371094 1443.308594 384.945312 1402.265625 393.636719 C 1375.992188 399.203125 1353.789062 412.652344 1333.96875 430.210938 C 1331.296875 432.578125 1329.265625 437.152344 1329.203125 440.742188 C 1328.78125 463.949219 1328.984375 487.164062 1328.984375 513 C 1333.203125 509.585938 1335.949219 507.65625 1338.355469 505.371094 C 1350.996094 493.378906 1363.484375 481.226562 1376.171875 469.289062 C 1379.777344 465.898438 1383.625 462.636719 1387.804688 460.011719 C 1401.304688 451.535156 1415.066406 453.109375 1423.667969 463.738281 C 1431.550781 473.476562 1430.144531 485.117188 1418.457031 497.015625 C 1392.292969 523.648438 1365.972656 550.136719 1339.238281 576.1875 C 1331.878906 583.359375 1328.296875 590.523438 1328.75 601.082031 C 1329.625 621.621094 1329.003906 642.226562 1329.003906 666.21875 C 1350.105469 645.441406 1368.9375 627.105469 1387.535156 608.535156 C 1411.902344 584.207031 1435.695312 559.289062 1460.601562 535.535156 C 1467.316406 529.132812 1476.804688 523.164062 1485.664062 522.035156 C 1500.757812 520.109375 1512.214844 534.464844 1507.464844 548.964844 C 1503.992188 559.574219 1497.917969 570.414062 1490.148438 578.359375 C 1439.410156 630.269531 1387.761719 681.292969 1336.855469 733.046875 C 1332.554688 737.417969 1329.597656 744.933594 1329.335938 751.132812 C 1328.429688 772.628906 1328.988281 794.191406 1328.988281 815.730469 C 1330.300781 816.53125 1331.617188 817.335938 1332.929688 818.140625 "/>
<path fill-rule="nonzero" fill="rgb(13.729858%, 12.159729%, 12.548828%)" fill-opacity="1" d="M 896.46875 1433.210938 C 896.46875 1430.351562 895.578125 1428.078125 893.738281 1426.253906 C 891.898438 1424.429688 889.199219 1423.539062 885.5 1423.539062 L 854.046875 1423.539062 L 854.046875 1442.882812 L 885.609375 1442.882812 C 888.671875 1442.882812 891.210938 1441.917969 893.371094 1439.9375 C 895.453125 1438.027344 896.46875 1435.824219 896.46875 1433.210938 M 854.046875 1489.25 L 884.640625 1489.25 C 888.765625 1489.25 892.296875 1488.410156 895.140625 1486.753906 C 898.003906 1485.089844 900.09375 1482.929688 901.539062 1480.144531 C 903.003906 1477.316406 903.75 1474.070312 903.75 1470.496094 C 903.75 1467.121094 902.96875 1464.121094 901.367188 1461.324219 C 899.785156 1458.550781 897.554688 1456.261719 894.742188 1454.519531 C 891.921875 1452.773438 888.910156 1451.863281 885.546875 1451.734375 L 854.046875 1451.734375 Z M 916.007812 1471.15625 C 916.007812 1475.925781 914.875 1480.40625 912.640625 1484.472656 C 910.390625 1488.550781 907.28125 1491.816406 903.40625 1494.179688 C 899.503906 1496.566406 895.195312 1497.773438 890.59375 1497.773438 L 842.234375 1497.773438 L 842.234375 1415.214844 L 890.792969 1415.214844 C 895.78125 1415.214844 900 1416.90625 903.332031 1420.25 C 906.667969 1423.585938 908.359375 1427.882812 908.359375 1433.011719 C 908.359375 1436.890625 907 1440.449219 904.3125 1443.585938 C 903.285156 1444.78125 902.15625 1445.84375 900.925781 1446.765625 C 902.472656 1447.484375 903.953125 1448.375 905.351562 1449.433594 C 908.640625 1451.921875 911.265625 1455.09375 913.15625 1458.863281 C 915.046875 1462.644531 916.007812 1466.777344 916.007812 1471.15625 "/>
<path fill-rule="nonzero" fill="rgb(13.729858%, 12.159729%, 12.548828%)" fill-opacity="1" d="M 974.164062 1415.214844 L 985.976562 1415.214844 L 985.976562 1497.773438 L 974.164062 1497.773438 Z M 974.164062 1415.214844 "/>
<path fill-rule="nonzero" fill="rgb(13.729858%, 12.159729%, 12.548828%)" fill-opacity="1" d="M 1072.722656 1415.066406 L 1072.722656 1467.746094 C 1072.722656 1474.269531 1072.492188 1479.164062 1072 1483.15625 C 1071.402344 1487.96875 1070.121094 1492.171875 1068.191406 1495.65625 C 1067.847656 1496.273438 1067.46875 1496.863281 1067.074219 1497.4375 C 1065.160156 1500.238281 1062.648438 1502.53125 1059.601562 1504.253906 C 1056.265625 1506.136719 1051.972656 1507.171875 1046.84375 1507.332031 L 1044.0625 1507.417969 L 1044.0625 1500.644531 L 1047.667969 1499.847656 C 1048.710938 1499.5625 1049.65625 1499.234375 1050.464844 1498.863281 C 1053.304688 1497.558594 1055.414062 1495.851562 1056.917969 1493.644531 C 1058.449219 1491.398438 1059.476562 1488.621094 1059.96875 1485.390625 L 1060.175781 1484.097656 C 1060.347656 1482.714844 1060.496094 1481.296875 1060.617188 1479.761719 C 1060.679688 1478.980469 1060.730469 1478.152344 1060.773438 1477.273438 C 1060.839844 1475.941406 1060.882812 1474.480469 1060.90625 1472.777344 L 1060.90625 1415.066406 Z M 1072.722656 1415.066406 "/>
<path fill-rule="nonzero" fill="rgb(13.729858%, 12.159729%, 12.548828%)" fill-opacity="1" d="M 1199.441406 1465.8125 C 1199.441406 1478.535156 1193.96875 1489 1184.796875 1493.8125 C 1179.769531 1496.453125 1173.46875 1497.789062 1166.066406 1497.789062 C 1165.738281 1497.789062 1165.40625 1497.789062 1165.070312 1497.785156 C 1157.425781 1497.664062 1151.101562 1496.183594 1145.730469 1493.261719 C 1139.96875 1490.128906 1135.671875 1485.519531 1133.304688 1479.9375 C 1131.4375 1475.542969 1131.285156 1471.136719 1131.285156 1467.34375 L 1131.285156 1415.214844 L 1143.097656 1415.214844 L 1143.097656 1434.664062 C 1143.097656 1434.664062 1143.164062 1453.90625 1143.164062 1457.535156 L 1143.164062 1468.007812 C 1143.160156 1470.398438 1143.15625 1472.65625 1143.726562 1474.777344 C 1144.972656 1479.371094 1148.207031 1483.269531 1152.835938 1485.765625 C 1157.347656 1488.191406 1163.085938 1489.226562 1169.871094 1488.824219 C 1176.195312 1488.453125 1181.003906 1486.792969 1184.15625 1483.898438 C 1187.414062 1480.902344 1189.664062 1476.332031 1190.335938 1471.347656 C 1190.652344 1469.007812 1190.632812 1466.480469 1190.617188 1464.035156 L 1190.597656 1461.175781 L 1190.597656 1415.214844 L 1199.433594 1415.214844 Z M 1199.441406 1465.8125 "/>
<path fill-rule="nonzero" fill="rgb(13.729858%, 12.159729%, 12.548828%)" fill-opacity="1" d="M 1345.453125 1424.046875 L 1306.070312 1424.046875 L 1306.070312 1497.773438 L 1294.253906 1497.773438 L 1294.253906 1424.046875 L 1254.867188 1424.046875 L 1257.105469 1415.214844 L 1343.214844 1415.214844 Z M 1345.453125 1424.046875 "/>
<path fill-rule="nonzero" fill="rgb(13.729858%, 12.159729%, 12.548828%)" fill-opacity="1" d="M 1409.632812 1488.9375 L 1463.738281 1488.9375 L 1461.546875 1497.773438 L 1397.816406 1497.773438 L 1397.816406 1415.214844 L 1461.546875 1415.214844 L 1463.738281 1424.046875 L 1409.632812 1424.046875 L 1409.632812 1444.375 L 1440.40625 1444.375 L 1440.40625 1453.210938 L 1409.632812 1453.210938 Z M 1409.632812 1488.9375 "/>
<path fill-rule="nonzero" fill="rgb(13.729858%, 12.159729%, 12.548828%)" fill-opacity="1" d="M 1531.015625 1461.851562 L 1550.773438 1461.851562 C 1551.644531 1461.851562 1552.488281 1461.816406 1553.3125 1461.765625 C 1554.109375 1461.707031 1554.902344 1461.625 1555.671875 1461.515625 L 1555.972656 1461.476562 L 1555.976562 1461.476562 C 1558.648438 1461.074219 1561.078125 1460.332031 1563.1875 1459.265625 C 1566.480469 1457.59375 1568.988281 1455.335938 1570.632812 1452.570312 C 1572.191406 1449.953125 1573.027344 1446.957031 1573.121094 1443.660156 L 1573.144531 1442.886719 L 1573.121094 1442.503906 C 1573.023438 1439.15625 1572.210938 1436.238281 1570.632812 1433.585938 C 1568.988281 1430.820312 1566.480469 1428.5625 1563.179688 1426.882812 C 1561.082031 1425.824219 1558.65625 1425.082031 1555.972656 1424.675781 C 1555.335938 1424.558594 1554.753906 1424.46875 1554.179688 1424.402344 L 1554.175781 1424.417969 C 1553.972656 1424.386719 1553.761719 1424.367188 1553.554688 1424.347656 L 1552.890625 1424.285156 C 1552.542969 1424.253906 1552.195312 1424.21875 1551.839844 1424.210938 L 1531 1424.210938 Z M 1588.609375 1491.285156 L 1588.546875 1497.773438 L 1579.808594 1497.773438 C 1574.179688 1497.773438 1568.949219 1495.238281 1565.457031 1490.820312 L 1549.773438 1470.945312 L 1531.011719 1470.945312 L 1531.011719 1497.769531 L 1519.195312 1497.769531 L 1519.195312 1415.210938 L 1557.199219 1415.210938 C 1562.308594 1415.210938 1567.101562 1416.464844 1571.445312 1418.9375 C 1575.78125 1421.40625 1579.261719 1424.824219 1581.792969 1429.09375 C 1584.304688 1433.355469 1585.589844 1438.058594 1585.601562 1443.070312 C 1585.589844 1448.097656 1584.308594 1452.800781 1581.792969 1457.058594 C 1579.265625 1461.332031 1575.785156 1464.75 1571.441406 1467.21875 C 1569.148438 1468.523438 1566.71875 1469.492188 1564.183594 1470.113281 L 1577.90625 1487.429688 C 1579.847656 1489.878906 1582.753906 1491.285156 1585.875 1491.285156 Z M 1588.609375 1491.285156 "/>
<path fill-rule="nonzero" fill="rgb(13.729858%, 12.159729%, 12.548828%)" fill-opacity="1" d="M 1646.558594 1415.214844 L 1658.375 1415.214844 L 1658.375 1497.773438 L 1646.558594 1497.773438 Z M 1646.558594 1415.214844 "/>
<path fill-rule="nonzero" fill="rgb(13.729858%, 12.159729%, 12.548828%)" fill-opacity="1" d="M 1732.53125 1468.601562 L 1765.878906 1468.601562 L 1750.167969 1433.320312 Z M 1792.550781 1497.773438 L 1779.550781 1497.773438 L 1769.792969 1476.710938 L 1731.363281 1476.710938 C 1729.417969 1476.710938 1727.65625 1477.84375 1726.753906 1479.667969 L 1718.125 1497.773438 L 1708.117188 1497.773438 L 1749.320312 1412.386719 L 1753.628906 1412.386719 Z M 1792.550781 1497.773438 "/>
<path fill-rule="nonzero" fill="rgb(13.729858%, 12.159729%, 12.548828%)" fill-opacity="1" d="M 761.410156 987.0625 L 761.410156 994.789062 L 739.1875 994.789062 L 739.1875 1320.121094 L 761.410156 1320.121094 L 761.410156 1327.847656 L 675.425781 1327.847656 L 675.425781 1320.121094 L 698.855469 1320.121094 L 698.855469 1012.90625 L 616.253906 1324.953125 L 608.765625 1325.191406 L 516.746094 1017.492188 L 516.746094 1320.121094 L 543.796875 1320.121094 L 543.796875 1327.847656 L 481.726562 1327.847656 L 481.726562 1320.121094 L 508.777344 1320.121094 L 508.777344 994.789062 L 481.726562 994.789062 L 481.726562 987.0625 L 549.109375 987.0625 L 627.605469 1252.011719 L 697.648438 987.0625 Z M 761.410156 987.0625 "/>
<path fill-rule="nonzero" fill="rgb(13.729858%, 12.159729%, 12.548828%)" fill-opacity="1" d="M 1034.085938 987.0625 L 1034.085938 994.789062 L 1009.933594 994.789062 L 1009.933594 1320.121094 L 1034.085938 1320.121094 L 1034.085938 1327.847656 L 945.449219 1327.847656 L 945.449219 1320.121094 L 969.597656 1320.121094 L 969.597656 994.789062 L 945.449219 994.789062 L 945.449219 987.0625 Z M 1034.085938 987.0625 "/>
<path fill-rule="nonzero" fill="rgb(13.729858%, 12.159729%, 12.548828%)" fill-opacity="1" d="M 1281.886719 994.546875 L 1281.886719 1156.367188 L 1323.1875 1156.367188 C 1347.980469 1156.367188 1365.050781 1150.8125 1374.390625 1139.703125 C 1383.890625 1128.433594 1388.640625 1107.503906 1388.640625 1076.90625 L 1388.640625 1073.769531 C 1388.640625 1020.957031 1367.304688 994.546875 1324.636719 994.546875 Z M 1304.351562 1327.609375 L 1218.125 1327.609375 L 1218.125 1319.878906 L 1241.554688 1319.878906 L 1241.554688 994.546875 L 1218.125 994.546875 L 1218.125 986.820312 L 1340.09375 986.820312 C 1398.703125 986.820312 1428.007812 1009.765625 1428.007812 1055.652344 L 1428.007812 1095.261719 C 1428.007812 1117.808594 1422.535156 1134.390625 1411.585938 1145.015625 C 1402.246094 1154.035156 1387.269531 1159.75 1366.660156 1162.164062 C 1386.304688 1167.480469 1400.960938 1176.898438 1410.621094 1190.421875 C 1419.3125 1202.660156 1423.660156 1217.394531 1423.660156 1234.621094 L 1423.660156 1299.109375 C 1423.660156 1315.046875 1428.25 1323.019531 1437.429688 1323.019531 C 1446.925781 1323.019531 1451.675781 1315.453125 1451.675781 1300.316406 L 1451.675781 1296.933594 L 1458.683594 1296.933594 L 1458.683594 1300.316406 C 1458.683594 1312.554688 1456.027344 1321.328125 1450.710938 1326.640625 C 1445.882812 1331.308594 1437.910156 1333.644531 1426.800781 1333.644531 C 1412.148438 1333.644531 1401.761719 1329.539062 1395.644531 1321.328125 C 1389.847656 1313.441406 1386.949219 1300.074219 1386.949219 1281.234375 L 1386.949219 1257.324219 C 1386.949219 1225.445312 1379.378906 1201.617188 1364.246094 1185.835938 C 1350.238281 1171.34375 1330.273438 1164.097656 1304.351562 1164.097656 L 1281.886719 1164.097656 L 1281.886719 1319.878906 L 1304.351562 1319.878906 Z M 1304.351562 1327.609375 "/>
<path fill-rule="nonzero" fill="rgb(13.729858%, 12.159729%, 12.548828%)" fill-opacity="1" d="M 1724.113281 987.0625 L 1724.113281 994.789062 L 1699.964844 994.789062 L 1699.964844 1320.121094 L 1724.113281 1320.121094 L 1724.113281 1327.847656 L 1635.476562 1327.847656 L 1635.476562 1320.121094 L 1659.628906 1320.121094 L 1659.628906 994.789062 L 1635.476562 994.789062 L 1635.476562 987.0625 Z M 1724.113281 987.0625 "/>
<path fill-rule="nonzero" fill="rgb(13.729858%, 12.159729%, 12.548828%)" fill-opacity="1" d="M 1990.996094 937.550781 C 1986.003906 937.550781 1981.09375 940.207031 1976.265625 945.519531 C 1974.816406 947.292969 1973.445312 949.144531 1972.160156 951.074219 C 1971.675781 951.71875 1971.273438 952.28125 1970.949219 952.765625 L 1970.710938 953.488281 L 1964.1875 950.109375 C 1970.46875 937.710938 1975.78125 929.335938 1980.128906 924.988281 C 1984.476562 920.804688 1989.628906 918.710938 1995.585938 918.710938 C 2000.253906 918.710938 2008.144531 920.96875 2019.253906 925.472656 C 2024.570312 927.730469 2028.917969 929.335938 2032.296875 930.304688 C 2037.285156 931.59375 2042.039062 932.234375 2046.546875 932.234375 C 2052.019531 932.234375 2057.65625 931.109375 2063.453125 928.855469 C 2069.890625 926.28125 2074.238281 923.058594 2076.496094 919.195312 L 2082.535156 922.332031 L 2081.328125 924.507812 L 2079.878906 926.679688 C 2078.910156 928.613281 2077.863281 930.304688 2076.738281 931.753906 C 2074 935.777344 2071.261719 939.238281 2068.527344 942.140625 C 2060.632812 949.867188 2051.777344 953.730469 2041.957031 953.730469 C 2036.484375 953.730469 2030.042969 952.039062 2022.636719 948.660156 L 2018.046875 946.484375 L 2013.460938 944.3125 C 2009.59375 942.542969 2006.453125 941.171875 2004.039062 940.207031 C 1999.210938 938.4375 1994.859375 937.550781 1990.996094 937.550781 M 1955.976562 1210.710938 L 2060.3125 1210.710938 L 2007.664062 1011.457031 Z M 2041.476562 987.0625 L 2129.628906 1320.121094 L 2153.058594 1320.121094 L 2153.058594 1327.847656 L 2066.835938 1327.847656 L 2066.835938 1320.121094 L 2089.296875 1320.121094 L 2062.488281 1218.4375 L 1953.800781 1218.4375 L 1927.476562 1320.121094 L 1955.734375 1320.121094 L 1955.734375 1327.847656 L 1893.664062 1327.847656 L 1893.664062 1320.121094 L 1919.507812 1320.121094 L 2005.972656 987.0625 Z M 2041.476562 987.0625 "/>
</svg>
